<svg width="20" height="23" viewBox="0 0 20 23" fill="none" xmlns="http://www.w3.org/2000/svg">
<path d="M18.6667 4H17.3333V2.66667C17.3333 1.19467 16.1387 0 14.6667 0H5.33333C3.86133 0 2.66667 1.19467 2.66667 2.66667V4H1.33333C0.597333 4 0 4.59733 0 5.33333C0 6.06933 0.597333 6.66667 1.33333 6.66667V17.3333C1.33333 20.2747 3.72533 22.6667 6.66667 22.6667H13.3333C16.2747 22.6667 18.6667 20.2747 18.6667 17.3333V6.66667C19.4027 6.66667 20 6.06933 20 5.33333C20 4.59733 19.4027 4 18.6667 4ZM5.33333 2.66667H14.6667V4H5.33333V2.66667ZM16 17.3333C16 18.8053 14.8053 20 13.3333 20H6.66667C5.19467 20 4 18.8053 4 17.3333V6.66667H16V17.3333ZM6 8.66667C5.63333 8.66667 5.33333 8.96667 5.33333 9.33333V17.3333C5.33333 17.7 5.63333 18 6 18C6.36667 18 6.66667 17.7 6.66667 17.3333V9.33333C6.66667 8.96667 6.36667 8.66667 6 8.66667ZM8.66667 8.66667C8.3 8.66667 8 8.96667 8 9.33333V17.3333C8 17.7 8.3 18 8.66667 18C9.03333 18 9.33333 17.7 9.33333 17.3333V9.33333C9.33333 8.96667 9.03333 8.66667 8.66667 8.66667ZM11.3333 8.66667C10.9667 8.66667 10.6667 8.96667 10.6667 9.33333V17.3333C10.6667 17.7 10.9667 18 11.3333 18C11.7 18 12 17.7 12 17.3333V9.33333C12 8.96667 11.7 8.66667 11.3333 8.66667ZM14 8.66667C13.6333 8.66667 13.3333 8.96667 13.3333 9.33333V17.3333C13.3333 17.7 13.6333 18 14 18C14.3667 18 14.6667 17.7 14.6667 17.3333V9.33333C14.6667 8.96667 14.3667 8.66667 14 8.66667Z" fill="#FD0707"/>
</svg>
